<svg width="28" height="28" viewBox="0 0 28 28" fill="none" xmlns="http://www.w3.org/2000/svg">
<g id="fluent:navigation-16-filled">
<path id="Vector" d="M3.5 6.5625C3.5 6.2144 3.63828 5.88056 3.88442 5.63442C4.13056 5.38828 4.4644 5.25 4.8125 5.25L23.1875 5.25C23.5356 5.25 23.8694 5.38828 24.1156 5.63442C24.3617 5.88056 24.5 6.2144 24.5 6.5625C24.5 6.9106 24.3617 7.24444 24.1156 7.49058C23.8694 7.73672 23.5356 7.875 23.1875 7.875L4.8125 7.875C4.4644 7.875 4.13056 7.73672 3.88442 7.49058C3.63828 7.24444 3.5 6.9106 3.5 6.5625ZM3.5 13.5625C3.5 13.2144 3.63828 12.8806 3.88442 12.6344C4.13056 12.3883 4.4644 12.25 4.8125 12.25L19.6875 12.25C20.0356 12.25 20.3694 12.3883 20.6156 12.6344C20.8617 12.8806 21 13.2144 21 13.5625C21 13.9106 20.8617 14.2444 20.6156 14.4906C20.3694 14.7367 20.0356 14.875 19.6875 14.875L4.8125 14.875C4.4644 14.875 4.13056 14.7367 3.88442 14.4906C3.63828 14.2444 3.5 13.9106 3.5 13.5625ZM3.5 20.5625C3.5 20.2144 3.63828 19.8806 3.88442 19.6344C4.13056 19.3883 4.4644 19.25 4.8125 19.25H14.4375C14.7856 19.25 15.1194 19.3883 15.3656 19.6344C15.6117 19.8806 15.75 20.2144 15.75 20.5625C15.75 20.9106 15.6117 21.2444 15.3656 21.4906C15.1194 21.7367 14.7856 21.875 14.4375 21.875H4.8125C4.4644 21.875 4.13056 21.7367 3.88442 21.4906C3.63828 21.2444 3.5 20.9106 3.5 20.5625Z" fill="white"/>
</g>
</svg>
